# File created by Blade
# Date/Time:  Wed Jan 21 16:33:30 2015
# Frame Rate: 120.000 fps
#------------------------------------------------------
:FULLY-SPECIFIED
:DEGREES
1301
root 27.273276 27.758515 -26.857942 -51.549974 98.465921 -51.025871
Spine 61.073865 3.360071 2.289545
Head -12.194388 -0.289675 -7.068276
LeftShoulder 5.184928 -26.457449 4.137748
LeftArm 15.698900 8.708761 -75.407406
LeftForeArm 18.313274 0.000000 49.309797
LeftHand -3.390958 0.000000 17.359056
LeftHandThumb1 -26.253704 0.000000 33.147579
RightShoulder 11.265672 -6.660728 -5.012591
RightArm 52.471898 3.773383 47.846617
RightForeArm -23.955755 -0.000000 21.380090
RightHand -0.764793 -0.000000 -2.454608
RightHandThumb1 -24.326973 -0.000000 -32.862282
LeftUpLeg -52.486686 5.905459 -9.365792
LeftLeg 66.313272 -0.000000 -0.000000
LeftFoot -31.601000 34.648186 -11.173400
LeftToeBase 20.728989 -0.000000 -0.000000
RightUpLeg -54.353570 -0.469688 1.072421
RightLeg 73.846879 -0.000000 -0.000000
RightFoot -38.668023 -27.261245 14.600315
RightToeBase 23.899702 -0.000000 -0.000000
1302
root 27.242263 28.112089 -26.745322 -46.835810 98.926424 -46.453967
Spine 60.216185 3.409633 2.411095
Head -11.663310 -0.121106 -6.904101
LeftShoulder 5.013197 -26.268171 4.203730
LeftArm 15.334497 9.388448 -76.171825
LeftForeArm 18.307339 -0.000000 49.694627
LeftHand -3.735308 -0.000000 17.941491
LeftHandThumb1 -26.253704 0.000000 33.147579
RightShoulder 10.989459 -6.760612 -4.856036
RightArm 51.851885 3.565468 48.482687
RightForeArm -23.555564 -0.000000 21.956409
RightHand -0.831172 0.000000 -2.958655
RightHandThumb1 -24.326973 -0.000000 -32.862282
LeftUpLeg -51.521209 5.801518 -9.296640
LeftLeg 64.355464 -0.000000 -0.000000
LeftFoot -30.495373 34.003207 -10.564221
LeftToeBase 19.436013 -0.000000 -0.000000
RightUpLeg -53.310540 -0.794240 1.169208
RightLeg 71.915809 -0.000000 -0.000000
RightFoot -38.028493 -27.699601 14.817575
RightToeBase 23.318868 -0.000000 -0.000000
1303
root 27.208434 28.465437 -26.654237 -42.219998 99.580393 -41.999388
Spine 59.325185 3.237767 2.469903
Head -11.172291 0.062745 -6.822209
LeftShoulder 4.787883 -26.171575 4.215325
LeftArm 14.863248 10.156861 -76.937023
LeftForeArm 18.108800 -0.000000 49.953656
LeftHand -3.791671 0.000000 18.509860
LeftHandThumb1 -26.253704 0.000000 33.147579
RightShoulder 10.755498 -6.959037 -4.741635
RightArm 51.261458 3.449383 49.167044
RightForeArm -23.179009 0.000000 22.515968
RightHand -0.902583 -0.000000 -3.394357
RightHandThumb1 -24.326973 -0.000000 -32.862282
LeftUpLeg -50.510318 5.495871 -9.314232
LeftLeg 62.350641 -0.000000 -0.000000
LeftFoot -29.480083 33.390598 -10.033612
LeftToeBase 17.680788 -0.000000 -0.000000
RightUpLeg -52.297272 -1.312407 1.188869
RightLeg 69.994599 -0.000000 -0.000000
RightFoot -37.409565 -28.171553 14.906610
RightToeBase 23.188320 -0.000000 -0.000000
1304
root 27.176445 28.813016 -26.565697 -38.034144 100.365212 -37.994812
Spine 58.394137 3.094858 2.546694
Head -10.646981 0.165222 -6.618391
LeftShoulder 4.961066 -26.727388 4.217754
LeftArm 13.435166 10.676347 -77.967183
LeftForeArm 17.867362 0.000000 50.360677
LeftHand -3.593089 -0.000000 18.526773
LeftHandThumb1 -26.253704 0.000000 33.147579
RightShoulder 10.427267 -7.152377 -4.502730
RightArm 50.596805 3.292651 49.714746
RightForeArm -22.865878 -0.000000 22.966123
RightHand -0.863935 0.000000 -4.122389
RightHandThumb1 -24.326973 -0.000000 -32.862282
LeftUpLeg -49.484137 5.034505 -9.358018
LeftLeg 60.392779 -0.000000 -0.000000
LeftFoot -28.697297 32.894895 -9.798288
LeftToeBase 16.040305 -0.000000 -0.000000
RightUpLeg -51.310548 -1.876042 1.171724
RightLeg 68.088694 -0.000000 -0.000000
RightFoot -36.756288 -28.693726 14.940552
RightToeBase 22.947519 -0.000000 -0.000000
1305
root 27.146528 29.148615 -26.481128 -34.554896 101.108481 -34.695313
Spine 57.410088 2.984463 2.699061
Head -9.996296 0.270035 -6.625002
LeftShoulder 4.845782 -26.432083 4.092856
LeftArm 13.111567 11.447610 -78.609087
LeftForeArm 17.664610 -0.000000 50.502095
LeftHand -3.768185 0.000000 18.418124
LeftHandThumb1 -26.253704 0.000000 33.147579
RightShoulder 10.119374 -7.417356 -4.379877
RightArm 49.948854 3.057472 50.204985
RightForeArm -22.573670 -0.000000 23.295644
RightHand -0.880198 -0.000000 -4.621774
RightHandThumb1 -24.326973 -0.000000 -32.862282
LeftUpLeg -48.505501 4.657022 -9.384478
LeftLeg 58.624129 -0.000000 -0.000000
LeftFoot -28.190300 32.587835 -9.719247
LeftToeBase 14.778218 -0.000000 -0.000000
RightUpLeg -50.327840 -2.390703 1.194787
RightLeg 66.175934 -0.000000 -0.000000
RightFoot -36.076723 -29.137915 14.860616
RightToeBase 22.430725 -0.000000 -0.000000
1306
root 27.121106 29.476310 -26.392698 -30.972909 101.886463 -31.272134
Spine 56.400042 2.772831 2.904538
Head -9.262258 0.470322 -6.638136
LeftShoulder 4.593465 -25.972778 3.959681
LeftArm 13.047983 12.243648 -79.160198
LeftForeArm 17.377672 -0.000000 50.409701
LeftHand -3.827216 -0.000000 18.364210
LeftHandThumb1 -26.253704 0.000000 33.147579
RightShoulder 9.856286 -7.722807 -4.257472
RightArm 49.298274 2.934514 50.799844
RightForeArm -22.185089 -0.000000 23.620471
RightHand -0.857895 -0.000000 -5.071858
RightHandThumb1 -24.326973 -0.000000 -32.862282
LeftUpLeg -47.529262 4.335945 -9.343425
LeftLeg 57.002494 -0.000000 -0.000000
LeftFoot -27.922420 32.480572 -9.650384
LeftToeBase 14.291157 -0.000000 -0.000000
RightUpLeg -49.300116 -2.955246 1.321369
RightLeg 64.208665 -0.000000 -0.000000
RightFoot -35.422104 -29.646523 14.728523
RightToeBase 22.000591 -0.000000 -0.000000
1307
root 27.100678 29.787951 -26.309692 -27.815174 102.745624 -28.261198
Spine 55.337591 2.534292 3.140969
Head -8.429892 0.671870 -6.755600
LeftShoulder 4.429603 -25.538626 3.724271
LeftArm 12.873028 13.279734 -79.501244
LeftForeArm 16.844130 0.000000 50.328610
LeftHand -3.854546 -0.000000 18.179270
LeftHandThumb1 -26.253704 0.000000 33.147579
RightShoulder 9.614789 -7.998703 -4.176468
RightArm 48.506625 2.678698 51.358508
RightForeArm -22.012071 -0.000000 23.882233
RightHand -0.940669 -0.000000 -5.751089
RightHandThumb1 -24.326973 -0.000000 -32.862282
LeftUpLeg -46.576477 4.073091 -9.376925
LeftLeg 55.614204 -0.000000 -0.000000
LeftFoot -27.944853 32.640069 -9.706108
LeftToeBase 14.247043 -0.000000 -0.000000
RightUpLeg -48.315330 -3.473928 1.396107
RightLeg 62.356713 -0.000000 -0.000000
RightFoot -34.824104 -30.103753 14.798592
RightToeBase 21.067936 -0.000000 -0.000000
1308
root 27.078810 30.090318 -26.226084 -25.090032 103.614124 -25.703402
Spine 54.248815 2.351210 3.326066
Head -7.587210 0.899015 -6.760206
LeftShoulder 4.189144 -25.077238 3.557715
LeftArm 12.759963 14.219379 -79.908218
LeftForeArm 16.275405 -0.000000 50.186060
LeftHand -3.887525 -0.000000 17.871145
LeftHandThumb1 -26.253704 0.000000 33.147579
RightShoulder 9.310445 -8.387544 -4.011198
RightArm 47.848797 2.397140 51.735257
RightForeArm -22.013940 -0.000000 24.068391
RightHand -0.852357 0.000000 -6.172241
RightHandThumb1 -24.326973 -0.000000 -32.862282
LeftUpLeg -45.674687 3.837528 -9.427491
LeftLeg 54.464813 -0.000000 -0.000000
LeftFoot -28.261311 33.217042 -10.086635
LeftToeBase 14.099091 -0.000000 -0.000000
RightUpLeg -47.357773 -3.948244 1.455770
RightLeg 60.491186 -0.000000 -0.000000
RightFoot -34.156087 -30.555511 14.720817
RightToeBase 20.678088 -0.000000 -0.000000
1309
root 27.064798 30.379420 -26.138189 -22.423550 104.474753 -23.157385
Spine 53.166252 2.186469 3.671523
Head -6.720691 1.119504 -6.875535
LeftShoulder 4.046519 -24.735745 3.327768
LeftArm 12.506978 15.107709 -80.318124
LeftForeArm 16.024255 0.000000 49.907676
LeftHand -3.773818 -0.000000 17.280415
LeftHandThumb1 -26.253704 0.000000 33.147579
RightShoulder 8.952808 -8.771847 -3.901219
RightArm 47.153907 2.116200 52.224326
RightForeArm -22.076561 -0.000000 24.240290
RightHand -0.988572 -0.000000 -6.604213
RightHandThumb1 -24.326973 -0.000000 -32.862282
LeftUpLeg -44.796882 3.787976 -9.453760
LeftLeg 53.651467 -0.000000 -0.000000
LeftFoot -28.765609 33.996424 -10.478270
LeftToeBase 14.041942 -0.000000 -0.000000
RightUpLeg -46.401109 -4.481920 1.651219
RightLeg 58.706825 -0.000000 -0.000000
RightFoot -33.511987 -30.906283 14.772144
RightToeBase 20.235635 -0.000000 -0.000000
1310
root 27.060697 30.657872 -26.056656 -20.273031 105.336199 -21.049980
Spine 52.144522 2.040630 3.903672
Head -5.839615 1.498485 -6.928995
LeftShoulder 3.835258 -24.446374 3.173143
LeftArm 12.207678 15.980700 -80.798110
LeftForeArm 15.947030 0.000000 49.472274
LeftHand -3.591270 -0.000000 16.892850
LeftHandThumb1 -26.253704 0.000000 33.147579
RightShoulder 8.650593 -9.045335 -3.754334
RightArm 46.326186 1.757296 52.694925
RightForeArm -22.339321 -0.000000 24.489212
RightHand -1.252420 -0.000000 -6.600193
RightHandThumb1 -24.326973 -0.000000 -32.862282
LeftUpLeg -43.838924 3.668795 -9.446518
LeftLeg 53.147880 -0.000000 -0.000000
LeftFoot -29.469859 34.920416 -10.923106
LeftToeBase 14.476674 -0.000000 -0.000000
RightUpLeg -45.361692 -4.969673 1.790741
RightLeg 56.921996 -0.000000 -0.000000
RightFoot -32.864757 -31.230274 14.854987
RightToeBase 19.203080 -0.000000 -0.000000
